<svg width="16" height="16" viewBox="0 0 16 16" fill="none" xmlns="http://www.w3.org/2000/svg">
<mask id="mask0_123_1310" style="mask-type:alpha" maskUnits="userSpaceOnUse" x="0" y="0" width="16" height="16">
<rect width="16" height="16" fill="#D9D9D9"/>
</mask>
<g mask="url(#mask0_123_1310)">
<path d="M3.33333 5.33333H12.6667V3.99999H3.33333V5.33333ZM3.33333 14.6667C2.96667 14.6667 2.65278 14.5361 2.39167 14.275C2.13056 14.0139 2 13.7 2 13.3333V3.99999C2 3.63333 2.13056 3.31944 2.39167 3.05833C2.65278 2.79722 2.96667 2.66666 3.33333 2.66666H4V1.33333H5.33333V2.66666H10.6667V1.33333H12V2.66666H12.6667C13.0333 2.66666 13.3472 2.79722 13.6083 3.05833C13.8694 3.31944 14 3.63333 14 3.99999V7.78333C13.7889 7.68333 13.5722 7.6 13.35 7.53333C13.1278 7.46666 12.9 7.41666 12.6667 7.38333V6.66666H3.33333V13.3333H7.53333C7.61111 13.5778 7.70278 13.8111 7.80833 14.0333C7.91389 14.2556 8.03889 14.4667 8.18333 14.6667H3.33333ZM12 15.3333C11.0778 15.3333 10.2917 15.0083 9.64167 14.3583C8.99167 13.7083 8.66667 12.9222 8.66667 12C8.66667 11.0778 8.99167 10.2917 9.64167 9.64166C10.2917 8.99166 11.0778 8.66666 12 8.66666C12.9222 8.66666 13.7083 8.99166 14.3583 9.64166C15.0083 10.2917 15.3333 11.0778 15.3333 12C15.3333 12.9222 15.0083 13.7083 14.3583 14.3583C13.7083 15.0083 12.9222 15.3333 12 15.3333ZM13.1167 13.5833L13.5833 13.1167L12.3333 11.8667V10H11.6667V12.1333L13.1167 13.5833Z" fill="#092580"/>
</g>
</svg>
