<svg width="15" height="16" viewBox="0 0 15 16" fill="none" xmlns="http://www.w3.org/2000/svg">
<path d="M13.8698 5.96879L12.8617 4.96067L13.4017 4.40261L11.0975 2.09834L10.5394 2.63841L9.51329 1.61229L10.0533 1.05422C10.3294 0.778193 10.6714 0.643178 11.0795 0.649178C11.4875 0.655179 11.8296 0.796195 12.1056 1.07223L14.4278 3.39449C14.7039 3.67052 14.8419 4.00956 14.8419 4.41161C14.8419 4.81365 14.7039 5.15269 14.4278 5.42872L13.8698 5.96879ZM5.2288 14.6278C4.95277 14.9038 4.61373 15.0418 4.21168 15.0418C3.80963 15.0418 3.4706 14.9038 3.19456 14.6278L0.872299 12.3055C0.596268 12.0295 0.458252 11.6904 0.458252 11.2884C0.458252 10.8863 0.596268 10.5473 0.872299 10.2713L1.41236 9.73122L2.43848 10.7573L1.88041 11.2974L4.20268 13.6197L4.74274 13.0616L5.76886 14.0877L5.2288 14.6278ZM12.3756 8.57909L13.4017 7.55297L7.94711 2.09834L6.92099 3.12446L12.3756 8.57909ZM7.33504 13.6197L8.36116 12.5755L2.92453 7.13892L1.88041 8.16504L7.33504 13.6197ZM7.22703 9.40718L9.20725 7.44495L8.05512 6.29282L6.0929 8.27305L7.22703 9.40718ZM8.36116 14.6278C8.08512 14.9038 7.74308 15.0418 7.33504 15.0418C6.92699 15.0418 6.58495 14.9038 6.30892 14.6278L0.872299 9.19115C0.596268 8.91512 0.458252 8.57308 0.458252 8.16504C0.458252 7.75699 0.596268 7.41495 0.872299 7.13892L1.89842 6.1128C2.17445 5.83677 2.51349 5.69876 2.91553 5.69876C3.31758 5.69876 3.65662 5.83677 3.93265 6.1128L5.06678 7.24693L7.04701 5.26671L5.91288 4.15058C5.63684 3.87455 5.49883 3.53251 5.49883 3.12446C5.49883 2.71641 5.63684 2.37438 5.91288 2.09834L6.93899 1.07223C7.21502 0.796195 7.55406 0.658179 7.95611 0.658179C8.35815 0.658179 8.69719 0.796195 8.97322 1.07223L14.4278 6.52685C14.7039 6.80288 14.8419 7.14192 14.8419 7.54397C14.8419 7.94601 14.7039 8.28505 14.4278 8.56108L13.4017 9.5872C13.1257 9.86323 12.7837 10.0012 12.3756 10.0012C11.9676 10.0012 11.6255 9.86323 11.3495 9.5872L10.2334 8.45307L8.25314 10.4333L9.38727 11.5674C9.6633 11.8435 9.80132 12.1825 9.80132 12.5845C9.80132 12.9866 9.6633 13.3256 9.38727 13.6017L8.36116 14.6278Z" fill="#1C1B1F"/>
</svg>
