<svg width="14" height="13" viewBox="0 0 14 13" fill="none" xmlns="http://www.w3.org/2000/svg">
<path d="M6.73991 12.5C6.53991 12.5 6.34824 12.4639 6.16491 12.3917C5.98158 12.3194 5.81769 12.2111 5.67324 12.0667L1.45658 7.83333H3.33991L6.62324 11.1167C6.64546 11.1389 6.66491 11.1528 6.68158 11.1583C6.69824 11.1639 6.71769 11.1667 6.73991 11.1667C6.76213 11.1667 6.78158 11.1639 6.79824 11.1583C6.81491 11.1528 6.83435 11.1389 6.85658 11.1167L11.3066 6.65C11.5621 6.39444 11.7566 6.09167 11.8899 5.74167C12.0232 5.39167 12.0899 5.03333 12.0899 4.66667C12.0677 3.9 11.8121 3.24167 11.3232 2.69167C10.8344 2.14167 10.2232 1.86667 9.48991 1.86667C9.14546 1.86667 8.81491 1.93333 8.49824 2.06667C8.18158 2.2 7.90658 2.39444 7.67324 2.65L7.22324 3.13333C7.16769 3.2 7.09547 3.25278 7.00658 3.29167C6.91769 3.33056 6.8288 3.35 6.73991 3.35C6.65102 3.35 6.56213 3.33056 6.47324 3.29167C6.38435 3.25278 6.30658 3.2 6.23991 3.13333L5.78991 2.65C5.55658 2.39444 5.28435 2.19444 4.97324 2.05C4.66213 1.90556 4.3288 1.83333 3.97324 1.83333C3.37324 1.83333 2.8538 2.025 2.41491 2.40833C1.97602 2.79167 1.6788 3.26667 1.52324 3.83333H0.156576C0.345464 2.88889 0.787131 2.09722 1.48158 1.45833C2.17602 0.819444 3.00658 0.5 3.97324 0.5C4.50658 0.5 5.00935 0.605556 5.48158 0.816667C5.9538 1.02778 6.37324 1.32222 6.73991 1.7C7.09546 1.32222 7.50935 1.02778 7.98158 0.816667C8.4538 0.605556 8.95658 0.5 9.48991 0.5C10.601 0.5 11.5316 0.911111 12.2816 1.73333C13.0316 2.55556 13.4066 3.53333 13.4066 4.66667C13.4066 5.21111 13.3121 5.73333 13.1232 6.23333C12.9344 6.73333 12.651 7.17778 12.2732 7.56667L7.78991 12.0667C7.64546 12.2111 7.48435 12.3194 7.30658 12.3917C7.1288 12.4639 6.93991 12.5 6.73991 12.5ZM6.65658 6.5H0.0732422V5.16667H9.32324C9.51213 5.16667 9.67047 5.10278 9.79824 4.975C9.92602 4.84722 9.98991 4.68889 9.98991 4.5C9.98991 4.31111 9.92602 4.15278 9.79824 4.025C9.67047 3.89722 9.51213 3.83333 9.32324 3.83333C9.16769 3.83333 9.0288 3.875 8.90658 3.95833C8.78435 4.04167 8.70658 4.16111 8.67324 4.31667L7.38991 3.96667C7.51213 3.53333 7.75102 3.18056 8.10658 2.90833C8.46213 2.63611 8.86769 2.5 9.32324 2.5C9.8788 2.5 10.351 2.69444 10.7399 3.08333C11.1288 3.47222 11.3232 3.94444 11.3232 4.5C11.3232 5.05556 11.1288 5.52778 10.7399 5.91667C10.351 6.30556 9.8788 6.5 9.32324 6.5H8.53991C8.57324 6.61111 8.60102 6.71944 8.62324 6.825C8.64546 6.93056 8.65658 7.04444 8.65658 7.16667C8.65658 7.72222 8.46213 8.19444 8.07324 8.58333C7.68435 8.97222 7.21213 9.16667 6.65658 9.16667C6.20102 9.16667 5.79546 9.03056 5.43991 8.75833C5.08435 8.48611 4.84546 8.13333 4.72324 7.7L6.00658 7.35C6.03991 7.50556 6.11769 7.625 6.23991 7.70833C6.36213 7.79167 6.50102 7.83333 6.65658 7.83333C6.84546 7.83333 7.0038 7.76945 7.13158 7.64167C7.25935 7.51389 7.32324 7.35556 7.32324 7.16667C7.32324 6.97778 7.25935 6.81944 7.13158 6.69167C7.0038 6.56389 6.84546 6.5 6.65658 6.5Z" fill="#1C1B1F"/>
</svg>
