<svg width="18" height="18" viewBox="0 0 18 18" fill="none" xmlns="http://www.w3.org/2000/svg">
<mask id="mask0_530_11212" style="mask-type:alpha" maskUnits="userSpaceOnUse" x="0" y="0" width="18" height="18">
<rect width="18" height="18" fill="#D9D9D9"/>
</mask>
<g mask="url(#mask0_530_11212)">
<path d="M9 8.25C9.4125 8.25 9.76563 8.10313 10.0594 7.80937C10.3531 7.51562 10.5 7.1625 10.5 6.75C10.5 6.3375 10.3531 5.98438 10.0594 5.69063C9.76563 5.39688 9.4125 5.25 9 5.25C8.5875 5.25 8.23438 5.39688 7.94063 5.69063C7.64687 5.98438 7.5 6.3375 7.5 6.75C7.5 7.1625 7.64687 7.51562 7.94063 7.80937C8.23438 8.10313 8.5875 8.25 9 8.25ZM5.25 15.75V14.25H8.25V11.925C7.6375 11.7875 7.09062 11.5281 6.60938 11.1469C6.12812 10.7656 5.775 10.2875 5.55 9.7125C4.6125 9.6 3.82812 9.19063 3.19688 8.48438C2.56563 7.77812 2.25 6.95 2.25 6V5.25C2.25 4.8375 2.39688 4.48438 2.69063 4.19063C2.98438 3.89688 3.3375 3.75 3.75 3.75H5.25V2.25H12.75V3.75H14.25C14.6625 3.75 15.0156 3.89688 15.3094 4.19063C15.6031 4.48438 15.75 4.8375 15.75 5.25V6C15.75 6.95 15.4344 7.77812 14.8031 8.48438C14.1719 9.19063 13.3875 9.6 12.45 9.7125C12.225 10.2875 11.8719 10.7656 11.3906 11.1469C10.9094 11.5281 10.3625 11.7875 9.75 11.925V14.25H12.75V15.75H5.25ZM5.25 8.1V5.25H3.75V6C3.75 6.475 3.8875 6.90312 4.1625 7.28438C4.4375 7.66563 4.8 7.9375 5.25 8.1ZM9 10.5C9.625 10.5 10.1562 10.2812 10.5938 9.84375C11.0312 9.40625 11.25 8.875 11.25 8.25V3.75H6.75V8.25C6.75 8.875 6.96875 9.40625 7.40625 9.84375C7.84375 10.2812 8.375 10.5 9 10.5ZM12.75 8.1C13.2 7.9375 13.5625 7.66563 13.8375 7.28438C14.1125 6.90312 14.25 6.475 14.25 6V5.25H12.75V8.1Z" fill="#0E3ACC"/>
</g>
</svg>
