<svg width="18" height="18" viewBox="0 0 18 18" fill="none" xmlns="http://www.w3.org/2000/svg">
<mask id="mask0_577_927" style="mask-type:alpha" maskUnits="userSpaceOnUse" x="0" y="0" width="18" height="18">
<rect width="18" height="18" fill="#D9D9D9"/>
</mask>
<g mask="url(#mask0_577_927)">
<path d="M4.05 15L3 13.95L10.2 6.75H8.25V8.25H6.75V5.25H11.1187C11.3187 5.25 11.5125 5.2875 11.7 5.3625C11.8875 5.4375 12.05 5.54375 12.1875 5.68125L14.4375 7.9125C14.775 8.25 15.1875 8.5125 15.675 8.7C16.1625 8.8875 16.6875 8.9875 17.25 9V10.5C16.475 10.5 15.7719 10.3813 15.1406 10.1438C14.5094 9.90625 13.95 9.55 13.4625 9.075L12.7125 8.2875L11.0625 9.9375L12.75 11.625L7.8375 14.4563L7.0875 13.1625L10.3125 11.3062L9.0375 10.0312L4.05 15ZM2.25 9.75V8.25H6V9.75H2.25ZM0.75 7.5V6H4.5V7.5H0.75ZM14.6063 6C14.1938 6 13.8375 5.85313 13.5375 5.55938C13.2375 5.26563 13.0875 4.9125 13.0875 4.5C13.0875 4.0875 13.2375 3.73438 13.5375 3.44063C13.8375 3.14688 14.1938 3 14.6063 3C15.0188 3 15.375 3.14688 15.675 3.44063C15.975 3.73438 16.125 4.0875 16.125 4.5C16.125 4.9125 15.975 5.26563 15.675 5.55938C15.375 5.85313 15.0188 6 14.6063 6ZM2.25 5.25V3.75H6V5.25H2.25Z" fill="#092580"/>
</g>
</svg>
